<mxfile host="Electron" agent="Mozilla/5.0 (Windows NT 10.0; Win64; x64) AppleWebKit/537.36 (KHTML, like Gecko) draw.io/26.2.2 Chrome/134.0.6998.178 Electron/35.1.2 Safari/537.36" version="26.2.2">
  <diagram name="Page-1" id="7-GtVGIxNzFbhlQL41d2">
    <mxGraphModel dx="2289" dy="1464" grid="1" gridSize="10" guides="1" tooltips="1" connect="1" arrows="1" fold="1" page="1" pageScale="1" pageWidth="827" pageHeight="1169" math="0" shadow="0">
      <root>
        <mxCell id="0" />
        <mxCell id="1" parent="0" />
        <mxCell id="GPfeK30c53NXhZ6cnLry-1" style="edgeStyle=orthogonalEdgeStyle;rounded=0;orthogonalLoop=1;jettySize=auto;html=1;exitX=0.5;exitY=1;exitDx=0;exitDy=0;entryX=0.5;entryY=0;entryDx=0;entryDy=0;" parent="1" source="GPfeK30c53NXhZ6cnLry-2" target="GPfeK30c53NXhZ6cnLry-4" edge="1">
          <mxGeometry relative="1" as="geometry" />
        </mxCell>
        <mxCell id="GPfeK30c53NXhZ6cnLry-2" value="Fetch staff list" style="rounded=0;whiteSpace=wrap;html=1;" parent="1" vertex="1">
          <mxGeometry x="755" y="1130" width="120" height="60" as="geometry" />
        </mxCell>
        <mxCell id="GPfeK30c53NXhZ6cnLry-3" style="edgeStyle=orthogonalEdgeStyle;rounded=0;orthogonalLoop=1;jettySize=auto;html=1;exitX=0;exitY=0.5;exitDx=0;exitDy=0;entryX=0.5;entryY=0;entryDx=0;entryDy=0;" parent="1" source="GPfeK30c53NXhZ6cnLry-4" target="GPfeK30c53NXhZ6cnLry-8" edge="1">
          <mxGeometry relative="1" as="geometry" />
        </mxCell>
        <mxCell id="GPfeK30c53NXhZ6cnLry-4" value="Show table of&amp;nbsp;&lt;div&gt;staff&lt;/div&gt;" style="shape=parallelogram;perimeter=parallelogramPerimeter;whiteSpace=wrap;html=1;fixedSize=1;" parent="1" vertex="1">
          <mxGeometry x="755" y="1220" width="120" height="60" as="geometry" />
        </mxCell>
        <mxCell id="GPfeK30c53NXhZ6cnLry-5" style="edgeStyle=orthogonalEdgeStyle;rounded=0;orthogonalLoop=1;jettySize=auto;html=1;exitX=0.5;exitY=1;exitDx=0;exitDy=0;entryX=0.5;entryY=0;entryDx=0;entryDy=0;" parent="1" source="GPfeK30c53NXhZ6cnLry-8" target="GPfeK30c53NXhZ6cnLry-10" edge="1">
          <mxGeometry relative="1" as="geometry" />
        </mxCell>
        <mxCell id="GPfeK30c53NXhZ6cnLry-6" value="Yes" style="edgeLabel;html=1;align=center;verticalAlign=middle;resizable=0;points=[];" parent="GPfeK30c53NXhZ6cnLry-5" vertex="1" connectable="0">
          <mxGeometry x="-0.0752" y="1" relative="1" as="geometry">
            <mxPoint as="offset" />
          </mxGeometry>
        </mxCell>
        <mxCell id="GPfeK30c53NXhZ6cnLry-7" style="edgeStyle=orthogonalEdgeStyle;rounded=0;orthogonalLoop=1;jettySize=auto;html=1;exitX=1;exitY=0.5;exitDx=0;exitDy=0;entryX=0;entryY=0.5;entryDx=0;entryDy=0;" parent="1" source="GPfeK30c53NXhZ6cnLry-8" target="GPfeK30c53NXhZ6cnLry-27" edge="1">
          <mxGeometry relative="1" as="geometry" />
        </mxCell>
        <mxCell id="ahhTbiayZk0ahkI5akCX-2" value="No" style="edgeLabel;html=1;align=center;verticalAlign=middle;resizable=0;points=[];" vertex="1" connectable="0" parent="GPfeK30c53NXhZ6cnLry-7">
          <mxGeometry x="-0.1327" y="-1" relative="1" as="geometry">
            <mxPoint as="offset" />
          </mxGeometry>
        </mxCell>
        <mxCell id="GPfeK30c53NXhZ6cnLry-8" value="&lt;font style=&quot;font-size: 12px;&quot;&gt;Add ?&lt;/font&gt;" style="rhombus;whiteSpace=wrap;html=1;" parent="1" vertex="1">
          <mxGeometry x="490" y="1290" width="80" height="80" as="geometry" />
        </mxCell>
        <mxCell id="GPfeK30c53NXhZ6cnLry-9" style="edgeStyle=orthogonalEdgeStyle;rounded=0;orthogonalLoop=1;jettySize=auto;html=1;entryX=0.5;entryY=0;entryDx=0;entryDy=0;" parent="1" target="GPfeK30c53NXhZ6cnLry-12" edge="1">
          <mxGeometry relative="1" as="geometry">
            <mxPoint x="510" y="1481" as="sourcePoint" />
          </mxGeometry>
        </mxCell>
        <mxCell id="GPfeK30c53NXhZ6cnLry-10" value="Open &quot; Add staff &quot;&lt;div&gt;form&lt;/div&gt;" style="shape=parallelogram;perimeter=parallelogramPerimeter;whiteSpace=wrap;html=1;fixedSize=1;" parent="1" vertex="1">
          <mxGeometry x="470" y="1420" width="120" height="60" as="geometry" />
        </mxCell>
        <mxCell id="GPfeK30c53NXhZ6cnLry-11" style="edgeStyle=orthogonalEdgeStyle;rounded=0;orthogonalLoop=1;jettySize=auto;html=1;exitX=0.5;exitY=1;exitDx=0;exitDy=0;entryX=0.5;entryY=0;entryDx=0;entryDy=0;" parent="1" source="GPfeK30c53NXhZ6cnLry-12" target="GPfeK30c53NXhZ6cnLry-13" edge="1">
          <mxGeometry relative="1" as="geometry" />
        </mxCell>
        <mxCell id="GPfeK30c53NXhZ6cnLry-12" value="Validate form" style="rounded=0;whiteSpace=wrap;html=1;" parent="1" vertex="1">
          <mxGeometry x="450" y="1520" width="120" height="60" as="geometry" />
        </mxCell>
        <mxCell id="GPfeK30c53NXhZ6cnLry-13" value="Is it valid?" style="rhombus;whiteSpace=wrap;html=1;" parent="1" vertex="1">
          <mxGeometry x="470" y="1610" width="80" height="80" as="geometry" />
        </mxCell>
        <mxCell id="GPfeK30c53NXhZ6cnLry-14" style="edgeStyle=orthogonalEdgeStyle;rounded=0;orthogonalLoop=1;jettySize=auto;html=1;exitX=0.5;exitY=1;exitDx=0;exitDy=0;entryX=0.5;entryY=0;entryDx=0;entryDy=0;" parent="1" source="GPfeK30c53NXhZ6cnLry-15" target="GPfeK30c53NXhZ6cnLry-22" edge="1">
          <mxGeometry relative="1" as="geometry" />
        </mxCell>
        <mxCell id="GPfeK30c53NXhZ6cnLry-15" value="Insert new staff record" style="rounded=0;whiteSpace=wrap;html=1;" parent="1" vertex="1">
          <mxGeometry x="340" y="1720" width="120" height="60" as="geometry" />
        </mxCell>
        <mxCell id="GPfeK30c53NXhZ6cnLry-16" style="edgeStyle=orthogonalEdgeStyle;rounded=0;orthogonalLoop=1;jettySize=auto;html=1;exitX=0;exitY=0.5;exitDx=0;exitDy=0;entryX=0.47;entryY=0.027;entryDx=0;entryDy=0;entryPerimeter=0;" parent="1" source="GPfeK30c53NXhZ6cnLry-13" target="GPfeK30c53NXhZ6cnLry-15" edge="1">
          <mxGeometry relative="1" as="geometry" />
        </mxCell>
        <mxCell id="GPfeK30c53NXhZ6cnLry-17" value="Yes" style="edgeLabel;html=1;align=center;verticalAlign=middle;resizable=0;points=[];" parent="GPfeK30c53NXhZ6cnLry-16" vertex="1" connectable="0">
          <mxGeometry x="-0.3972" relative="1" as="geometry">
            <mxPoint as="offset" />
          </mxGeometry>
        </mxCell>
        <mxCell id="GPfeK30c53NXhZ6cnLry-18" value="Show errors" style="shape=parallelogram;perimeter=parallelogramPerimeter;whiteSpace=wrap;html=1;fixedSize=1;" parent="1" vertex="1">
          <mxGeometry x="560" y="1720" width="120" height="60" as="geometry" />
        </mxCell>
        <mxCell id="GPfeK30c53NXhZ6cnLry-19" style="edgeStyle=orthogonalEdgeStyle;rounded=0;orthogonalLoop=1;jettySize=auto;html=1;exitX=1;exitY=0.5;exitDx=0;exitDy=0;entryX=0.654;entryY=-0.007;entryDx=0;entryDy=0;entryPerimeter=0;" parent="1" source="GPfeK30c53NXhZ6cnLry-13" target="GPfeK30c53NXhZ6cnLry-18" edge="1">
          <mxGeometry relative="1" as="geometry" />
        </mxCell>
        <mxCell id="GPfeK30c53NXhZ6cnLry-20" value="No" style="edgeLabel;html=1;align=center;verticalAlign=middle;resizable=0;points=[];" parent="GPfeK30c53NXhZ6cnLry-19" vertex="1" connectable="0">
          <mxGeometry x="-0.4117" y="2" relative="1" as="geometry">
            <mxPoint as="offset" />
          </mxGeometry>
        </mxCell>
        <mxCell id="GPfeK30c53NXhZ6cnLry-21" style="edgeStyle=orthogonalEdgeStyle;rounded=0;orthogonalLoop=1;jettySize=auto;html=1;exitX=0.5;exitY=1;exitDx=0;exitDy=0;entryX=0;entryY=0.5;entryDx=0;entryDy=0;" parent="1" source="GPfeK30c53NXhZ6cnLry-22" target="GPfeK30c53NXhZ6cnLry-24" edge="1">
          <mxGeometry relative="1" as="geometry" />
        </mxCell>
        <mxCell id="GPfeK30c53NXhZ6cnLry-22" value="Refresh table" style="shape=parallelogram;perimeter=parallelogramPerimeter;whiteSpace=wrap;html=1;fixedSize=1;" parent="1" vertex="1">
          <mxGeometry x="340" y="1830" width="120" height="60" as="geometry" />
        </mxCell>
        <mxCell id="GPfeK30c53NXhZ6cnLry-23" style="edgeStyle=orthogonalEdgeStyle;rounded=0;orthogonalLoop=1;jettySize=auto;html=1;exitX=0.5;exitY=1;exitDx=0;exitDy=0;" parent="1" source="GPfeK30c53NXhZ6cnLry-24" edge="1">
          <mxGeometry relative="1" as="geometry">
            <mxPoint x="530" y="2010" as="targetPoint" />
          </mxGeometry>
        </mxCell>
        <mxCell id="GPfeK30c53NXhZ6cnLry-24" value="" style="rhombus;whiteSpace=wrap;html=1;" parent="1" vertex="1">
          <mxGeometry x="510" y="1910" width="40" height="30" as="geometry" />
        </mxCell>
        <mxCell id="GPfeK30c53NXhZ6cnLry-25" style="edgeStyle=orthogonalEdgeStyle;rounded=0;orthogonalLoop=1;jettySize=auto;html=1;exitX=0.5;exitY=1;exitDx=0;exitDy=0;entryX=0.957;entryY=0.522;entryDx=0;entryDy=0;entryPerimeter=0;" parent="1" edge="1">
          <mxGeometry relative="1" as="geometry">
            <mxPoint x="621.7199999999998" y="1780" as="sourcePoint" />
            <mxPoint x="550" y="1925.6599999999999" as="targetPoint" />
            <Array as="points">
              <mxPoint x="622" y="1926" />
              <mxPoint x="552" y="1926" />
            </Array>
          </mxGeometry>
        </mxCell>
        <mxCell id="GPfeK30c53NXhZ6cnLry-26" style="edgeStyle=orthogonalEdgeStyle;rounded=0;orthogonalLoop=1;jettySize=auto;html=1;exitX=1;exitY=0.5;exitDx=0;exitDy=0;entryX=0;entryY=0.5;entryDx=0;entryDy=0;" parent="1" source="GPfeK30c53NXhZ6cnLry-27" target="GPfeK30c53NXhZ6cnLry-38" edge="1">
          <mxGeometry relative="1" as="geometry" />
        </mxCell>
        <mxCell id="GPfeK30c53NXhZ6cnLry-63" value="No" style="edgeLabel;html=1;align=center;verticalAlign=middle;resizable=0;points=[];" parent="GPfeK30c53NXhZ6cnLry-26" vertex="1" connectable="0">
          <mxGeometry x="-0.0636" relative="1" as="geometry">
            <mxPoint as="offset" />
          </mxGeometry>
        </mxCell>
        <mxCell id="GPfeK30c53NXhZ6cnLry-27" value="Edit ?" style="rhombus;whiteSpace=wrap;html=1;" parent="1" vertex="1">
          <mxGeometry x="780" y="1300" width="80" height="60" as="geometry" />
        </mxCell>
        <mxCell id="GPfeK30c53NXhZ6cnLry-28" style="edgeStyle=orthogonalEdgeStyle;rounded=0;orthogonalLoop=1;jettySize=auto;html=1;exitX=0.5;exitY=1;exitDx=0;exitDy=0;entryX=0.5;entryY=0;entryDx=0;entryDy=0;" parent="1" source="GPfeK30c53NXhZ6cnLry-29" target="GPfeK30c53NXhZ6cnLry-31" edge="1">
          <mxGeometry relative="1" as="geometry" />
        </mxCell>
        <mxCell id="GPfeK30c53NXhZ6cnLry-29" value="Open &quot; Edit staff &quot;&lt;div&gt;form&lt;/div&gt;" style="shape=parallelogram;perimeter=parallelogramPerimeter;whiteSpace=wrap;html=1;fixedSize=1;" parent="1" vertex="1">
          <mxGeometry x="750" y="1400" width="120" height="60" as="geometry" />
        </mxCell>
        <mxCell id="GPfeK30c53NXhZ6cnLry-30" style="edgeStyle=orthogonalEdgeStyle;rounded=0;orthogonalLoop=1;jettySize=auto;html=1;exitX=0.5;exitY=1;exitDx=0;exitDy=0;entryX=0.5;entryY=0;entryDx=0;entryDy=0;" parent="1" source="GPfeK30c53NXhZ6cnLry-31" target="GPfeK30c53NXhZ6cnLry-33" edge="1">
          <mxGeometry relative="1" as="geometry" />
        </mxCell>
        <mxCell id="GPfeK30c53NXhZ6cnLry-31" value="Validate change" style="rounded=0;whiteSpace=wrap;html=1;" parent="1" vertex="1">
          <mxGeometry x="750" y="1520" width="120" height="60" as="geometry" />
        </mxCell>
        <mxCell id="GPfeK30c53NXhZ6cnLry-32" style="edgeStyle=orthogonalEdgeStyle;rounded=0;orthogonalLoop=1;jettySize=auto;html=1;exitX=0.5;exitY=1;exitDx=0;exitDy=0;entryX=0.5;entryY=0;entryDx=0;entryDy=0;" parent="1" source="GPfeK30c53NXhZ6cnLry-33" target="GPfeK30c53NXhZ6cnLry-36" edge="1">
          <mxGeometry relative="1" as="geometry" />
        </mxCell>
        <mxCell id="GPfeK30c53NXhZ6cnLry-33" value="Update staff record" style="rounded=0;whiteSpace=wrap;html=1;" parent="1" vertex="1">
          <mxGeometry x="750" y="1640" width="120" height="60" as="geometry" />
        </mxCell>
        <mxCell id="GPfeK30c53NXhZ6cnLry-34" style="edgeStyle=orthogonalEdgeStyle;rounded=0;orthogonalLoop=1;jettySize=auto;html=1;exitX=0.5;exitY=1;exitDx=0;exitDy=0;entryX=0.584;entryY=0;entryDx=0;entryDy=0;entryPerimeter=0;" parent="1" source="GPfeK30c53NXhZ6cnLry-27" target="GPfeK30c53NXhZ6cnLry-29" edge="1">
          <mxGeometry relative="1" as="geometry" />
        </mxCell>
        <mxCell id="GPfeK30c53NXhZ6cnLry-62" value="Yes" style="edgeLabel;html=1;align=center;verticalAlign=middle;resizable=0;points=[];" parent="GPfeK30c53NXhZ6cnLry-34" vertex="1" connectable="0">
          <mxGeometry x="-0.2552" y="-1" relative="1" as="geometry">
            <mxPoint as="offset" />
          </mxGeometry>
        </mxCell>
        <mxCell id="GPfeK30c53NXhZ6cnLry-35" style="edgeStyle=orthogonalEdgeStyle;rounded=0;orthogonalLoop=1;jettySize=auto;html=1;exitX=0.5;exitY=1;exitDx=0;exitDy=0;" parent="1" source="GPfeK30c53NXhZ6cnLry-36" edge="1">
          <mxGeometry relative="1" as="geometry">
            <mxPoint x="810" y="2010" as="targetPoint" />
          </mxGeometry>
        </mxCell>
        <mxCell id="GPfeK30c53NXhZ6cnLry-36" value="Refresh table" style="shape=parallelogram;perimeter=parallelogramPerimeter;whiteSpace=wrap;html=1;fixedSize=1;" parent="1" vertex="1">
          <mxGeometry x="750" y="1740" width="120" height="60" as="geometry" />
        </mxCell>
        <mxCell id="GPfeK30c53NXhZ6cnLry-37" style="edgeStyle=orthogonalEdgeStyle;rounded=0;orthogonalLoop=1;jettySize=auto;html=1;exitX=1;exitY=0.5;exitDx=0;exitDy=0;" parent="1" source="GPfeK30c53NXhZ6cnLry-38" edge="1">
          <mxGeometry relative="1" as="geometry">
            <mxPoint x="1190" y="2010" as="targetPoint" />
          </mxGeometry>
        </mxCell>
        <mxCell id="GPfeK30c53NXhZ6cnLry-61" value="No" style="edgeLabel;html=1;align=center;verticalAlign=middle;resizable=0;points=[];" parent="GPfeK30c53NXhZ6cnLry-37" vertex="1" connectable="0">
          <mxGeometry x="-0.8748" y="-1" relative="1" as="geometry">
            <mxPoint as="offset" />
          </mxGeometry>
        </mxCell>
        <mxCell id="GPfeK30c53NXhZ6cnLry-59" style="edgeStyle=orthogonalEdgeStyle;rounded=0;orthogonalLoop=1;jettySize=auto;html=1;entryX=0.5;entryY=0;entryDx=0;entryDy=0;" parent="1" source="GPfeK30c53NXhZ6cnLry-38" target="GPfeK30c53NXhZ6cnLry-41" edge="1">
          <mxGeometry relative="1" as="geometry" />
        </mxCell>
        <mxCell id="GPfeK30c53NXhZ6cnLry-60" value="Yes" style="edgeLabel;html=1;align=center;verticalAlign=middle;resizable=0;points=[];" parent="GPfeK30c53NXhZ6cnLry-59" vertex="1" connectable="0">
          <mxGeometry x="0.2298" y="-1" relative="1" as="geometry">
            <mxPoint as="offset" />
          </mxGeometry>
        </mxCell>
        <mxCell id="GPfeK30c53NXhZ6cnLry-38" value="Delete ?" style="rhombus;whiteSpace=wrap;html=1;" parent="1" vertex="1">
          <mxGeometry x="950" y="1300" width="80" height="60" as="geometry" />
        </mxCell>
        <mxCell id="GPfeK30c53NXhZ6cnLry-39" style="edgeStyle=orthogonalEdgeStyle;rounded=0;orthogonalLoop=1;jettySize=auto;html=1;exitX=0.5;exitY=1;exitDx=0;exitDy=0;entryX=0.5;entryY=0;entryDx=0;entryDy=0;" parent="1" source="GPfeK30c53NXhZ6cnLry-41" target="GPfeK30c53NXhZ6cnLry-42" edge="1">
          <mxGeometry relative="1" as="geometry" />
        </mxCell>
        <mxCell id="GPfeK30c53NXhZ6cnLry-40" value="Yes" style="edgeLabel;html=1;align=center;verticalAlign=middle;resizable=0;points=[];" parent="GPfeK30c53NXhZ6cnLry-39" vertex="1" connectable="0">
          <mxGeometry x="-0.0717" y="-1" relative="1" as="geometry">
            <mxPoint as="offset" />
          </mxGeometry>
        </mxCell>
        <mxCell id="GPfeK30c53NXhZ6cnLry-41" value="Confirm delete?" style="rhombus;whiteSpace=wrap;html=1;" parent="1" vertex="1">
          <mxGeometry x="950" y="1390" width="80" height="80" as="geometry" />
        </mxCell>
        <mxCell id="GPfeK30c53NXhZ6cnLry-42" value="Remove staff record" style="rounded=0;whiteSpace=wrap;html=1;" parent="1" vertex="1">
          <mxGeometry x="930" y="1520" width="120" height="60" as="geometry" />
        </mxCell>
        <mxCell id="GPfeK30c53NXhZ6cnLry-43" style="edgeStyle=orthogonalEdgeStyle;rounded=0;orthogonalLoop=1;jettySize=auto;html=1;exitX=0.5;exitY=1;exitDx=0;exitDy=0;entryX=0.5;entryY=0;entryDx=0;entryDy=0;" parent="1" source="GPfeK30c53NXhZ6cnLry-44" target="GPfeK30c53NXhZ6cnLry-47" edge="1">
          <mxGeometry relative="1" as="geometry" />
        </mxCell>
        <mxCell id="GPfeK30c53NXhZ6cnLry-44" value="Refresh table" style="shape=parallelogram;perimeter=parallelogramPerimeter;whiteSpace=wrap;html=1;fixedSize=1;" parent="1" vertex="1">
          <mxGeometry x="920" y="1640" width="120" height="60" as="geometry" />
        </mxCell>
        <mxCell id="GPfeK30c53NXhZ6cnLry-45" style="edgeStyle=orthogonalEdgeStyle;rounded=0;orthogonalLoop=1;jettySize=auto;html=1;exitX=0.5;exitY=1;exitDx=0;exitDy=0;entryX=0.585;entryY=0.033;entryDx=0;entryDy=0;entryPerimeter=0;" parent="1" source="GPfeK30c53NXhZ6cnLry-42" target="GPfeK30c53NXhZ6cnLry-44" edge="1">
          <mxGeometry relative="1" as="geometry" />
        </mxCell>
        <mxCell id="GPfeK30c53NXhZ6cnLry-46" style="edgeStyle=orthogonalEdgeStyle;rounded=0;orthogonalLoop=1;jettySize=auto;html=1;exitX=0.5;exitY=1;exitDx=0;exitDy=0;" parent="1" source="GPfeK30c53NXhZ6cnLry-47" edge="1">
          <mxGeometry relative="1" as="geometry">
            <mxPoint x="980" y="2010" as="targetPoint" />
          </mxGeometry>
        </mxCell>
        <mxCell id="GPfeK30c53NXhZ6cnLry-47" value="" style="rhombus;whiteSpace=wrap;html=1;" parent="1" vertex="1">
          <mxGeometry x="965" y="1755" width="30" height="30" as="geometry" />
        </mxCell>
        <mxCell id="GPfeK30c53NXhZ6cnLry-48" value="" style="endArrow=none;html=1;rounded=0;" parent="1" edge="1">
          <mxGeometry width="50" height="50" relative="1" as="geometry">
            <mxPoint x="530" y="2010" as="sourcePoint" />
            <mxPoint x="1196.0000610351562" y="2010" as="targetPoint" />
          </mxGeometry>
        </mxCell>
        <mxCell id="GPfeK30c53NXhZ6cnLry-66" value="" style="edgeStyle=orthogonalEdgeStyle;rounded=0;orthogonalLoop=1;jettySize=auto;html=1;" parent="1" source="GPfeK30c53NXhZ6cnLry-49" target="GPfeK30c53NXhZ6cnLry-58" edge="1">
          <mxGeometry relative="1" as="geometry" />
        </mxCell>
        <mxCell id="GPfeK30c53NXhZ6cnLry-49" value="Back to dashboared" style="rounded=0;whiteSpace=wrap;html=1;" parent="1" vertex="1">
          <mxGeometry x="760" y="2060" width="120" height="60" as="geometry" />
        </mxCell>
        <mxCell id="GPfeK30c53NXhZ6cnLry-52" value="&lt;font style=&quot;font-size: 14px;&quot;&gt;Display Dashboard&lt;/font&gt;" style="shape=parallelogram;perimeter=parallelogramPerimeter;whiteSpace=wrap;html=1;fixedSize=1;" parent="1" vertex="1">
          <mxGeometry x="735" y="1000" width="170" height="90" as="geometry" />
        </mxCell>
        <mxCell id="GPfeK30c53NXhZ6cnLry-65" style="edgeStyle=orthogonalEdgeStyle;rounded=0;orthogonalLoop=1;jettySize=auto;html=1;entryX=0.5;entryY=0;entryDx=0;entryDy=0;exitX=0.485;exitY=0.956;exitDx=0;exitDy=0;exitPerimeter=0;" parent="1" source="GPfeK30c53NXhZ6cnLry-53" target="GPfeK30c53NXhZ6cnLry-54" edge="1">
          <mxGeometry relative="1" as="geometry">
            <Array as="points">
              <mxPoint x="820" y="776" />
            </Array>
          </mxGeometry>
        </mxCell>
        <mxCell id="GPfeK30c53NXhZ6cnLry-53" value="" style="ellipse;html=1;shape=endState;fillColor=#000000;strokeColor=none;" parent="1" vertex="1">
          <mxGeometry x="780" y="700" width="80" height="80" as="geometry" />
        </mxCell>
        <mxCell id="GPfeK30c53NXhZ6cnLry-64" style="edgeStyle=orthogonalEdgeStyle;rounded=0;orthogonalLoop=1;jettySize=auto;html=1;entryX=0.5;entryY=0;entryDx=0;entryDy=0;" parent="1" source="GPfeK30c53NXhZ6cnLry-54" target="GPfeK30c53NXhZ6cnLry-52" edge="1">
          <mxGeometry relative="1" as="geometry" />
        </mxCell>
        <mxCell id="GPfeK30c53NXhZ6cnLry-54" value="Login" style="rounded=0;whiteSpace=wrap;html=1;" parent="1" vertex="1">
          <mxGeometry x="760" y="810" width="120" height="60" as="geometry" />
        </mxCell>
        <mxCell id="GPfeK30c53NXhZ6cnLry-55" value="" style="endArrow=classic;html=1;rounded=0;exitX=0.5;exitY=1;exitDx=0;exitDy=0;" parent="1" source="GPfeK30c53NXhZ6cnLry-52" edge="1">
          <mxGeometry width="50" height="50" relative="1" as="geometry">
            <mxPoint x="815" y="1060" as="sourcePoint" />
            <mxPoint x="819.5" y="1130" as="targetPoint" />
          </mxGeometry>
        </mxCell>
        <mxCell id="GPfeK30c53NXhZ6cnLry-58" value="" style="ellipse;html=1;shape=endState;fillColor=#000000;strokeColor=#330000;gradientColor=none;" parent="1" vertex="1">
          <mxGeometry x="782.5" y="2160" width="75" height="70" as="geometry" />
        </mxCell>
        <mxCell id="GPfeK30c53NXhZ6cnLry-67" style="edgeStyle=orthogonalEdgeStyle;rounded=0;orthogonalLoop=1;jettySize=auto;html=1;" parent="1" edge="1">
          <mxGeometry relative="1" as="geometry">
            <mxPoint x="819.81" y="2060" as="targetPoint" />
            <mxPoint x="819.98" y="2010" as="sourcePoint" />
            <Array as="points">
              <mxPoint x="819.81" y="2060" />
            </Array>
          </mxGeometry>
        </mxCell>
        <mxCell id="GPfeK30c53NXhZ6cnLry-68" value="&lt;font style=&quot;font-size: 1px;&quot;&gt;.&lt;/font&gt;" style="text;html=1;align=center;verticalAlign=middle;resizable=0;points=[];autosize=1;strokeColor=none;fillColor=none;" parent="1" vertex="1">
          <mxGeometry x="230" y="1570" width="20" height="30" as="geometry" />
        </mxCell>
        <mxCell id="GPfeK30c53NXhZ6cnLry-69" value="&lt;font style=&quot;font-size: 1px;&quot;&gt;.&lt;/font&gt;" style="text;html=1;align=center;verticalAlign=middle;resizable=0;points=[];autosize=1;strokeColor=none;fillColor=none;" parent="1" vertex="1">
          <mxGeometry x="810" y="2330" width="20" height="30" as="geometry" />
        </mxCell>
        <mxCell id="GPfeK30c53NXhZ6cnLry-70" value="&lt;font style=&quot;font-size: 1px;&quot;&gt;.&lt;/font&gt;" style="text;html=1;align=center;verticalAlign=middle;resizable=0;points=[];autosize=1;strokeColor=none;fillColor=none;" parent="1" vertex="1">
          <mxGeometry x="1330" y="1655" width="20" height="30" as="geometry" />
        </mxCell>
        <mxCell id="GPfeK30c53NXhZ6cnLry-71" value="&lt;font style=&quot;font-size: 1px;&quot;&gt;.&lt;/font&gt;" style="text;html=1;align=center;verticalAlign=middle;resizable=0;points=[];autosize=1;strokeColor=none;fillColor=none;" parent="1" vertex="1">
          <mxGeometry x="810" y="650" width="20" height="30" as="geometry" />
        </mxCell>
        <mxCell id="ahhTbiayZk0ahkI5akCX-1" value="Input Email&amp;amp;&lt;div&gt;Pasword&lt;/div&gt;" style="shape=parallelogram;perimeter=parallelogramPerimeter;whiteSpace=wrap;html=1;fixedSize=1;" vertex="1" parent="1">
          <mxGeometry x="760" y="900" width="120" height="60" as="geometry" />
        </mxCell>
        <mxCell id="ahhTbiayZk0ahkI5akCX-3" value="&lt;font style=&quot;font-size: 36px;&quot;&gt;Figure 2.5 Manage Academic staff profiles Flowchart&lt;/font&gt;" style="text;strokeColor=none;align=center;fillColor=none;html=1;verticalAlign=middle;whiteSpace=wrap;rounded=0;" vertex="1" parent="1">
          <mxGeometry x="385" y="2280" width="860" height="30" as="geometry" />
        </mxCell>
      </root>
    </mxGraphModel>
  </diagram>
</mxfile>
